<svg xmlns="http://www.w3.org/2000/svg" viewBox="0 0 1200 360" role="img" aria-label="FLYWHEEL — product shot">
  <defs>
    <style>
      .t { font-family: ui-monospace,SFMono-Regular,"SF Mono",Menlo,Consolas,"Liberation Mono",monospace; font-size: 17px; }
      .title { font-family: ui-monospace,SFMono-Regular,"SF Mono",Menlo,Consolas,monospace; font-size: 14px; fill: #7D8590; }
    </style>
    <clipPath id="panel"><rect x="1" y="1" width="1198" height="358" rx="14"/></clipPath>
  </defs>
  <rect x="1" y="1" width="1198" height="358" rx="14" fill="#0D1117" stroke="#30363D" stroke-width="1.5"/>
  <g clip-path="url(#panel)">
    <path d="M1,15 a14,14 0 0 1 14,-14 h1170 a14,14 0 0 1 14,14 v41 h-1198 z" fill="#161B22"/>
    <line x1="1" y1="56" x2="1199" y2="56" stroke="#30363D" stroke-width="1"/>
    <circle cx="1060" cy="30" r="300" fill="#F5A623" opacity="0.045"/>
    <circle cx="30" cy="28" r="7" fill="#FF5F57"/>
    <circle cx="54" cy="28" r="7" fill="#FEBC2E"/>
    <circle cx="78" cy="28" r="7" fill="#28C840"/>
    <text x="600" y="33" text-anchor="middle" class="title">flywheel — learn what wins</text>
    <rect x="0" y="56" width="4" height="304" fill="#F5A623" opacity="0.85"/>
    <text x="36" y="106" class="t"><tspan fill="#7D8590">$ </tspan><tspan fill="#F5A623" font-weight="600">node examples/demo.cjs</tspan></text>
    <text x="36" y="136" class="t" fill="#7D8590">record(react, 0.9) · record(vue, 0.5) · record(react, 0.8) · record(svelte, 0.3)</text>
    <text x="36" y="166" class="t" fill="#C9D1D9">policy: react   score=0.997  n=6  avg=0.85  win=100%</text>
    <text x="36" y="196" class="t" fill="#C9D1D9">policy: vue     score=0.287  n=2  avg=0.50  win=0%</text>
    <text x="36" y="226" class="t" fill="#C9D1D9">policy: svelte  score=0.207  n=2  avg=0.30  win=0%</text>
    <text x="36" y="256" class="t" fill="#3FB950">recommend → react  (exploit win1·avg0.85·n6)</text>
    <text x="36" y="316" class="t" fill="#7D8590">group-advantage over K variants: Â = (R−μ)/σ — critic-free</text>
  </g>
</svg>
